<svg width="16" height="16" viewBox="0 0 16 16" fill="none" xmlns="http://www.w3.org/2000/svg">
<path d="M2.99999 7.99999C3.92047 7.99999 4.66666 7.2538 4.66666 6.33332C4.66666 5.41285 3.92047 4.66666 2.99999 4.66666C2.07952 4.66666 1.33333 5.41285 1.33333 6.33332C1.33333 7.2538 2.07952 7.99999 2.99999 7.99999Z" fill="#696565"/>
<path d="M5.99999 5.33333C6.92047 5.33333 7.66666 4.58714 7.66666 3.66667C7.66666 2.74619 6.92047 2 5.99999 2C5.07952 2 4.33333 2.74619 4.33333 3.66667C4.33333 4.58714 5.07952 5.33333 5.99999 5.33333Z" fill="#696565"/>
<path d="M10 5.33333C10.9205 5.33333 11.6667 4.58714 11.6667 3.66667C11.6667 2.74619 10.9205 2 10 2C9.07952 2 8.33333 2.74619 8.33333 3.66667C8.33333 4.58714 9.07952 5.33333 10 5.33333Z" fill="#696565"/>
<path d="M13 7.99999C13.9205 7.99999 14.6667 7.2538 14.6667 6.33332C14.6667 5.41285 13.9205 4.66666 13 4.66666C12.0795 4.66666 11.3333 5.41285 11.3333 6.33332C11.3333 7.2538 12.0795 7.99999 13 7.99999Z" fill="#696565"/>
<path d="M11.56 9.90667C10.98 9.22667 10.4933 8.64667 9.90666 7.96667C9.6 7.60667 9.20666 7.24667 8.74 7.08667C8.66666 7.06 8.59333 7.04 8.52 7.02667C8.35333 7 8.17333 7 8 7C7.82666 7 7.64667 7 7.47333 7.03333C7.4 7.04667 7.32667 7.06667 7.25333 7.09333C6.78667 7.25333 6.4 7.61333 6.08667 7.97333C5.50667 8.65333 5.02 9.23333 4.43333 9.91333C3.56 10.7867 2.48667 11.7533 2.68667 13.1067C2.88 13.7867 3.36667 14.46 4.24 14.6533C4.72667 14.7533 6.28 14.36 7.93333 14.36H8.05333C9.70667 14.36 11.26 14.7467 11.7467 14.6533C12.62 14.46 13.1067 13.78 13.3 13.1067C13.5067 11.7467 12.4333 10.78 11.56 9.90667Z" fill="#696565"/>
</svg>
