<svg width="292" height="48" viewBox="0 0 292 48" fill="none" xmlns="http://www.w3.org/2000/svg">
<path d="M8.788 36.856L8.3457 37.7529L8.35053 37.7552L8.788 36.856ZM3.728 32.412L2.88215 32.9455L2.88808 32.9547L3.728 32.412ZM3.728 19.52L2.88808 18.9773L2.88597 18.9806L3.728 19.52ZM8.788 15.076L8.35053 14.1768L8.34571 14.1791L8.788 15.076ZM23.66 15.384L23.142 16.2394L23.66 15.384ZM27.972 20.62L28.413 21.5175L29.2125 21.1246L28.9143 20.2852L27.972 20.62ZM20.272 24.404L19.3582 24.8101L19.7803 25.7599L20.713 25.3015L20.272 24.404ZM13.144 22.468L12.4242 21.7739L12.4176 21.7806L12.4112 21.7875L13.144 22.468ZM13.144 29.464L12.4112 30.1445L12.4176 30.1514L12.4242 30.1581L13.144 29.464ZM20.272 27.528L20.713 26.6305L19.7803 26.1721L19.3582 27.1219L20.272 27.528ZM27.972 31.312L28.9143 31.6468L29.2125 30.8074L28.413 30.4145L27.972 31.312ZM23.66 36.548L24.178 37.4034H24.178L23.66 36.548ZM16.136 37.44C13.5397 37.44 11.2431 36.9383 9.22547 35.9568L8.35053 37.7552C10.6743 38.8857 13.2763 39.44 16.136 39.44V37.44ZM9.23029 35.9591C7.24232 34.9788 5.69665 33.6161 4.56792 31.8693L2.88808 32.9547C4.22335 35.0212 6.05101 36.6212 8.34571 37.7529L9.23029 35.9591ZM4.5738 31.8785C3.4787 30.1424 2.924 28.1737 2.924 25.944H0.924C0.924 28.5249 1.57197 30.8683 2.8822 32.9455L4.5738 31.8785ZM2.924 25.944C2.924 23.7142 3.47868 21.763 4.57003 20.0594L2.88597 18.9806C1.57199 21.0317 0.924 23.3632 0.924 25.944H2.924ZM4.56792 20.0627C5.69665 18.3159 7.24232 16.9532 9.23029 15.9729L8.34571 14.1791C6.05101 15.3108 4.22335 16.9108 2.88808 18.9773L4.56792 20.0627ZM9.22547 15.9752C11.2431 14.9937 13.5397 14.492 16.136 14.492V12.492C13.2763 12.492 10.6743 13.0463 8.35053 14.1768L9.22547 15.9752ZM16.136 14.492C18.9242 14.492 21.2448 15.0904 23.142 16.2394L24.178 14.5286C21.9099 13.155 19.2144 12.492 16.136 12.492V14.492ZM23.142 16.2394C25.0337 17.385 26.3173 18.9495 27.0297 20.9548L28.9143 20.2852C28.0427 17.8319 26.4517 15.9056 24.178 14.5286L23.142 16.2394ZM27.531 19.7225L19.831 23.5065L20.713 25.3015L28.413 21.5175L27.531 19.7225ZM21.1858 23.9979C20.6692 22.8355 19.9947 21.8887 19.127 21.231C18.2462 20.5635 17.2208 20.236 16.092 20.236V22.236C16.8112 22.236 17.4064 22.4365 17.919 22.825C18.4446 23.2233 18.9361 23.8605 19.3582 24.8101L21.1858 23.9979ZM16.092 20.236C14.6558 20.236 13.4106 20.7509 12.4242 21.7739L13.8638 23.1621C14.4614 22.5424 15.1815 22.236 16.092 22.236V20.236ZM12.4112 21.7875C11.4259 22.8486 11 24.2819 11 25.944H13C13 24.6141 13.3367 23.73 13.8768 23.1485L12.4112 21.7875ZM11 25.944C11 27.6294 11.4228 29.0801 12.4112 30.1445L13.8768 28.7836C13.3398 28.2053 13 27.3093 13 25.944H11ZM12.4242 30.1581C13.4106 31.1811 14.6558 31.696 16.092 31.696V29.696C15.1815 29.696 14.4614 29.3896 13.8638 28.7699L12.4242 30.1581ZM16.092 31.696C17.2208 31.696 18.2462 31.3685 19.127 30.701C19.9947 30.0433 20.6692 29.0965 21.1858 27.9341L19.3582 27.1219C18.9361 28.0715 18.4446 28.7087 17.919 29.107C17.4064 29.4955 16.8112 29.696 16.092 29.696V31.696ZM19.831 28.4255L27.531 32.2095L28.413 30.4145L20.713 26.6305L19.831 28.4255ZM27.0297 30.9772C26.3173 32.9825 25.0337 34.547 23.142 35.6926L24.178 37.4034C26.4517 36.0264 28.0427 34.1001 28.9143 31.6468L27.0297 30.9772ZM23.142 35.6926C21.2448 36.8416 18.9242 37.44 16.136 37.44V39.44C19.2144 39.44 21.9099 38.777 24.178 37.4034L23.142 35.6926ZM54.1183 16.176L53.4112 16.8831L53.417 16.8888L54.1183 16.176ZM56.8463 38V39H57.8463V38H56.8463ZM46.9023 38H45.9023V39H46.9023V38ZM41.2263 23.04L40.4789 22.3756L40.4773 22.3774L41.2263 23.04ZM40.2143 38V39H41.2143V38H40.2143ZM30.2703 38H29.2703V39H30.2703V38ZM30.2703 5.352V4.352H29.2703V5.352H30.2703ZM40.2143 5.352H41.2143V4.352H40.2143V5.352ZM40.2143 15.868H39.2143V18.0422L40.8651 16.6273L40.2143 15.868ZM46.9903 14.492C49.7366 14.492 51.8413 15.3132 53.4112 16.8831L54.8254 15.4689C52.8166 13.4601 50.1693 12.492 46.9903 12.492V14.492ZM53.417 16.8888C54.977 18.4237 55.8463 20.8195 55.8463 24.272H57.8463C57.8463 20.5085 56.8969 17.5069 54.8196 15.4632L53.417 16.8888ZM55.8463 24.272V38H57.8463V24.272H55.8463ZM56.8463 37H46.9023V39H56.8463V37ZM47.9023 38V25.988H45.9023V38H47.9023ZM47.9023 25.988C47.9023 24.5208 47.6463 23.2409 46.9796 22.3056C46.2685 21.3079 45.2007 20.852 43.9543 20.852V22.852C44.6733 22.852 45.0794 23.0854 45.351 23.4664C45.667 23.9097 45.9023 24.6979 45.9023 25.988H47.9023ZM43.9543 20.852C42.5708 20.852 41.3836 21.3579 40.4789 22.3756L41.9737 23.7044C42.4771 23.1381 43.1085 22.852 43.9543 22.852V20.852ZM40.4773 22.3774C39.5648 23.4089 39.2143 24.9225 39.2143 26.692H41.2143C41.2143 25.1175 41.5385 24.1964 41.9753 23.7026L40.4773 22.3774ZM39.2143 26.692V38H41.2143V26.692H39.2143ZM40.2143 37H30.2703V39H40.2143V37ZM31.2703 38V5.352H29.2703V38H31.2703ZM30.2703 6.352H40.2143V4.352H30.2703V6.352ZM39.2143 5.352V15.868H41.2143V5.352H39.2143ZM40.8651 16.6273C42.5139 15.214 44.5349 14.492 46.9903 14.492V12.492C44.1071 12.492 41.6108 13.354 39.5635 15.1087L40.8651 16.6273ZM87.0705 28.276V29.276H88.01L88.0686 28.3384L87.0705 28.276ZM70.3505 28.276V27.276H68.8911L69.418 28.637L70.3505 28.276ZM72.1105 30.388L71.5916 31.2428L71.6029 31.2497L71.6144 31.2562L72.1105 30.388ZM77.8305 30.696L77.4918 29.755L77.4794 29.7597L77.8305 30.696ZM80.2065 29.332L80.9166 28.6279L80.2999 28.006L79.6021 28.5353L80.2065 29.332ZM85.3985 34.568L86.1385 35.2407L86.7772 34.5381L86.1086 33.8639L85.3985 34.568ZM67.2265 36.856L66.7841 37.7529L66.7938 37.7575L67.2265 36.856ZM62.1225 32.368L62.9683 31.8345L62.1225 32.368ZM62.0785 19.52L61.2327 18.9865L61.2305 18.99L62.0785 19.52ZM66.9625 15.076L66.5103 14.1841L66.5052 14.1867L66.9625 15.076ZM80.6025 14.944L80.1659 15.8437L80.1711 15.8461L80.6025 14.944ZM85.3985 19.212L84.5505 19.742L84.5565 19.7514L85.3985 19.212ZM71.4945 21.104L72.1314 21.875L71.4945 21.104ZM70.1745 23.48L69.194 23.2839L68.9547 24.48H70.1745V23.48ZM77.9185 23.48V24.48H79.1454L78.898 23.2783L77.9185 23.48ZM76.5985 21.148L75.9424 21.9026L75.9519 21.9109L75.9617 21.919L76.5985 21.148ZM86.2025 25.944C86.2025 25.9433 86.2024 25.9565 86.2011 25.9924C86.1999 26.0253 86.1981 26.069 86.1954 26.1247C86.1901 26.2359 86.1821 26.3874 86.1711 26.5805C86.1493 26.9662 86.1164 27.5103 86.0725 28.2136L88.0686 28.3384C88.1549 26.957 88.2025 26.1316 88.2025 25.944H86.2025ZM87.0705 27.276H70.3505V29.276H87.0705V27.276ZM69.418 28.637C69.8483 29.7487 70.5787 30.6278 71.5916 31.2428L72.6295 29.5332C71.9997 29.1508 71.5567 28.6219 71.2831 27.915L69.418 28.637ZM71.6144 31.2562C72.6258 31.8342 73.8357 32.092 75.1905 32.092V30.092C74.0813 30.092 73.2379 29.8805 72.6067 29.5198L71.6144 31.2562ZM75.1905 32.092C76.3217 32.092 77.3299 31.9517 78.1817 31.6323L77.4794 29.7597C76.9231 29.9683 76.1714 30.092 75.1905 30.092V32.092ZM78.1693 31.6369C79.0259 31.3285 79.9072 30.8143 80.8109 30.1287L79.6021 28.5353C78.8046 29.1404 78.1019 29.5355 77.4918 29.7551L78.1693 31.6369ZM79.4964 30.0361L84.6884 35.2721L86.1086 33.8639L80.9166 28.6279L79.4964 30.0361ZM84.6586 33.8953C82.5594 36.2045 79.3643 37.44 74.8825 37.44V39.44C79.7288 39.44 83.5444 38.0942 86.1385 35.2407L84.6586 33.8953ZM74.8825 37.44C72.1002 37.44 69.7009 36.9345 67.6593 35.9545L66.7938 37.7575C69.1521 38.8895 71.8569 39.44 74.8825 39.44V37.44ZM67.669 35.9592C65.6192 34.948 64.064 33.5715 62.9683 31.8345L61.2767 32.9015C62.5864 34.9778 64.4338 36.5933 66.7841 37.7528L67.669 35.9592ZM62.9683 31.8345C61.872 30.0963 61.3185 28.1419 61.3185 25.944H59.3185C59.3185 28.4981 59.9678 30.8263 61.2767 32.9015L62.9683 31.8345ZM61.3185 25.944C61.3185 23.7093 61.8611 21.7547 62.9265 20.05L61.2305 18.99C59.9493 21.04 59.3185 23.3681 59.3185 25.944H61.3185ZM62.9243 20.0535C64.0292 18.3018 65.5215 16.9416 67.4199 15.9653L66.5052 14.1867C64.2969 15.3224 62.5332 16.9248 61.2327 18.9865L62.9243 20.0535ZM67.4148 15.9679C69.343 14.9902 71.5175 14.492 73.9585 14.492V12.492C71.2369 12.492 68.7474 13.0498 66.5103 14.1841L67.4148 15.9679ZM73.9585 14.492C76.257 14.492 78.3203 14.948 80.1659 15.8437L81.0391 14.0443C78.8955 13.004 76.5294 12.492 73.9585 12.492V14.492ZM80.1711 15.8461C82.0261 16.7333 83.4793 18.028 84.5505 19.742L86.2465 18.682C84.9711 16.6413 83.2269 15.0907 81.034 14.0419L80.1711 15.8461ZM84.5565 19.7514C85.6394 21.4418 86.2025 23.4913 86.2025 25.944H88.2025C88.2025 23.1754 87.563 20.7368 86.2406 18.6726L84.5565 19.7514ZM74.0465 19.268C72.8296 19.268 71.7416 19.6028 70.8577 20.333L72.1314 21.875C72.5968 21.4905 73.2101 21.268 74.0465 21.268V19.268ZM70.8577 20.333C69.9726 21.0641 69.4352 22.0778 69.194 23.2839L71.1551 23.6761C71.3246 22.8288 71.6671 22.2585 72.1314 21.875L70.8577 20.333ZM70.1745 24.48H77.9185V22.48H70.1745V24.48ZM78.898 23.2783C78.6546 22.096 78.1137 21.1026 77.2354 20.377L75.9617 21.919C76.4327 22.3081 76.7718 22.8693 76.9391 23.6817L78.898 23.2783ZM77.2547 20.3934C76.3713 19.6252 75.2764 19.268 74.0465 19.268V21.268C74.87 21.268 75.4764 21.4975 75.9424 21.9026L77.2547 20.3934ZM114.189 16.176L113.481 16.8831L113.487 16.8888L114.189 16.176ZM116.917 38V39H117.917V38H116.917ZM106.973 38H105.973V39H106.973V38ZM101.297 23.04L100.549 22.3756L100.548 22.3774L101.297 23.04ZM100.285 38V39H101.285V38H100.285ZM90.3406 38H89.3406V39H90.3406V38ZM90.3406 5.352V4.352H89.3406V5.352H90.3406ZM100.285 5.352H101.285V4.352H100.285V5.352ZM100.285 15.868H99.2846V18.0422L100.935 16.6273L100.285 15.868ZM107.061 14.492C109.807 14.492 111.912 15.3132 113.482 16.8831L114.896 15.4689C112.887 13.4601 110.24 12.492 107.061 12.492V14.492ZM113.487 16.8888C115.047 18.4237 115.917 20.8195 115.917 24.272H117.917C117.917 20.5085 116.967 17.5069 114.89 15.4632L113.487 16.8888ZM115.917 24.272V38H117.917V24.272H115.917ZM116.917 37H106.973V39H116.917V37ZM107.973 38V25.988H105.973V38H107.973ZM107.973 25.988C107.973 24.5208 107.717 23.2409 107.05 22.3056C106.339 21.3079 105.271 20.852 104.025 20.852V22.852C104.744 22.852 105.15 23.0854 105.421 23.4664C105.737 23.9097 105.973 24.6979 105.973 25.988H107.973ZM104.025 20.852C102.641 20.852 101.454 21.3579 100.549 22.3756L102.044 23.7044C102.547 23.1381 103.179 22.852 104.025 22.852V20.852ZM100.548 22.3774C99.6351 23.4089 99.2846 24.9225 99.2846 26.692H101.285C101.285 25.1175 101.609 24.1964 102.046 23.7026L100.548 22.3774ZM99.2846 26.692V38H101.285V26.692H99.2846ZM100.285 37H90.3406V39H100.285V37ZM91.3406 38V5.352H89.3406V38H91.3406ZM90.3406 6.352H100.285V4.352H90.3406V6.352ZM99.2846 5.352V15.868H101.285V5.352H99.2846ZM100.935 16.6273C102.584 15.214 104.605 14.492 107.061 14.492V12.492C104.177 12.492 101.681 13.354 99.6338 15.1087L100.935 16.6273ZM121.235 5.352V4.352H120.235V5.352H121.235ZM131.179 5.352H132.179V4.352H131.179V5.352ZM131.179 38V39H132.179V38H131.179ZM121.235 38H120.235V39H121.235V38ZM121.235 6.352H131.179V4.352H121.235V6.352ZM130.179 5.352V38H132.179V5.352H130.179ZM131.179 37H121.235V39H131.179V37ZM122.235 38V5.352H120.235V38H122.235ZM141.087 36.856L140.63 37.7454L140.637 37.7492L140.644 37.7529L141.087 36.856ZM136.115 32.412L135.269 32.9455L135.273 32.9514L136.115 32.412ZM136.115 19.52L136.957 20.0594L136.961 20.0535L136.115 19.52ZM141.087 15.076L140.644 14.1791L140.64 14.1816L141.087 15.076ZM155.519 15.076L155.072 15.9704L155.076 15.9729L155.519 15.076ZM160.491 19.52L159.639 20.0441L159.644 20.0518L159.649 20.0594L160.491 19.52ZM160.491 32.412L159.645 31.8785L159.643 31.882L160.491 32.412ZM155.519 36.856L155.966 37.7504L155.971 37.748L155.519 36.856ZM151.119 29.464L151.865 30.13L151.87 30.1235L151.876 30.1169L151.119 29.464ZM151.119 22.468L150.373 23.134L151.119 22.468ZM145.487 22.468L146.233 23.134L145.487 22.468ZM145.487 29.464L144.729 30.1169L144.735 30.1235L144.741 30.13L145.487 29.464ZM148.303 37.44C145.768 37.44 143.517 36.9396 141.529 35.9591L140.644 37.7529C142.939 38.8844 145.498 39.44 148.303 39.44V37.44ZM141.544 35.9666C139.578 34.9565 138.058 33.5916 136.957 31.8726L135.273 32.9514C136.577 34.9871 138.371 36.5849 140.63 37.7454L141.544 35.9666ZM136.961 31.8785C135.865 30.1424 135.311 28.1737 135.311 25.944H133.311C133.311 28.5249 133.959 30.8683 135.269 32.9455L136.961 31.8785ZM135.311 25.944C135.311 23.7142 135.865 21.763 136.957 20.0594L135.273 18.9806C133.959 21.0317 133.311 23.3632 133.311 25.944H135.311ZM136.961 20.0535C138.061 18.3088 139.577 16.9488 141.534 15.9704L140.64 14.1816C138.372 15.3152 136.574 16.9179 135.269 18.9865L136.961 20.0535ZM141.529 15.9729C143.517 14.9924 145.768 14.492 148.303 14.492V12.492C145.498 12.492 142.939 13.0476 140.644 14.1791L141.529 15.9729ZM148.303 14.492C150.868 14.492 153.117 14.9932 155.072 15.9704L155.966 14.1816C153.696 13.0468 151.134 12.492 148.303 12.492V14.492ZM155.076 15.9729C157.061 16.9514 158.571 18.3085 159.639 20.0441L161.342 18.9959C160.064 16.9182 158.259 15.3126 155.961 14.1791L155.076 15.9729ZM159.649 20.0594C160.74 21.763 161.295 23.7142 161.295 25.944H163.295C163.295 23.3632 162.647 21.0317 161.333 18.9806L159.649 20.0594ZM161.295 25.944C161.295 28.1737 160.74 30.1424 159.645 31.8785L161.337 32.9455C162.647 30.8683 163.295 28.5249 163.295 25.944H161.295ZM159.643 31.882C158.574 33.5919 157.06 34.9538 155.067 35.964L155.971 37.748C158.26 36.5875 160.061 34.9868 161.339 32.942L159.643 31.882ZM155.072 35.9616C153.117 36.9388 150.868 37.44 148.303 37.44V39.44C151.134 39.44 153.696 38.8852 155.966 37.7504L155.072 35.9616ZM148.303 31.696C149.719 31.696 150.933 31.1731 151.865 30.13L150.373 28.798C149.837 29.3976 149.174 29.696 148.303 29.696V31.696ZM151.876 30.1169C152.812 29.0319 153.219 27.5992 153.219 25.944H151.219C151.219 27.2808 150.893 28.1948 150.361 28.8111L151.876 30.1169ZM153.219 25.944C153.219 24.2912 152.812 22.8635 151.865 21.802L150.373 23.134C150.892 23.7151 151.219 24.6048 151.219 25.944H153.219ZM151.865 21.802C150.933 20.7589 149.719 20.236 148.303 20.236V22.236C149.174 22.236 149.837 22.5344 150.373 23.134L151.865 21.802ZM148.303 20.236C146.886 20.236 145.672 20.7589 144.741 21.802L146.233 23.134C146.768 22.5344 147.431 22.236 148.303 22.236V20.236ZM144.741 21.802C143.793 22.8635 143.387 24.2912 143.387 25.944H145.387C145.387 24.6048 145.714 23.7151 146.233 23.134L144.741 21.802ZM143.387 25.944C143.387 27.5992 143.794 29.0319 144.729 30.1169L146.244 28.8111C145.713 28.1948 145.387 27.2808 145.387 25.944H143.387ZM144.741 30.13C145.672 31.1731 146.886 31.696 148.303 31.696V29.696C147.431 29.696 146.768 29.3976 146.233 28.798L144.741 30.13ZM191.559 13.932L192.486 14.3051L193.039 12.932H191.559V13.932ZM181.878 38V39H182.554L182.806 38.3731L181.878 38ZM171.583 38L170.655 38.3731L170.907 39H171.583V38ZM161.902 13.932V12.932H160.422L160.975 14.3051L161.902 13.932ZM172.111 13.932L173.047 13.5805L172.803 12.932H172.111V13.932ZM176.951 26.824L176.014 27.1755L176.918 29.5821L177.878 27.1976L176.951 26.824ZM182.143 13.932V12.932H181.467L181.215 13.5584L182.143 13.932ZM190.631 13.5589L180.951 37.6269L182.806 38.3731L192.486 14.3051L190.631 13.5589ZM181.878 37H171.583V39H181.878V37ZM172.51 37.6269L162.83 13.5589L160.975 14.3051L170.655 38.3731L172.51 37.6269ZM161.902 14.932H172.111V12.932H161.902V14.932ZM171.174 14.2835L176.014 27.1755L177.887 26.4725L173.047 13.5805L171.174 14.2835ZM177.878 27.1976L183.07 14.3056L181.215 13.5584L176.023 26.4504L177.878 27.1976ZM182.143 14.932H191.559V12.932H182.143V14.932ZM196.423 37.78L196.208 38.7565L196.423 37.78ZM191.583 36.064L190.66 35.6798L190.321 36.4945L191.087 36.9322L191.583 36.064ZM194.311 29.508L194.829 28.6525L193.834 28.0506L193.388 29.1238L194.311 29.508ZM198.271 31.092L198.513 30.1219L198.271 31.092ZM205.091 31.4L205.462 32.3285L205.477 32.3226L205.492 32.3162L205.091 31.4ZM204.915 29.728L204.66 30.6951L204.672 30.6981L204.915 29.728ZM202.143 29.288L202.024 30.281L202.03 30.2816L202.143 29.288ZM197.127 28.408L196.86 29.3718L196.87 29.3745L196.88 29.3769L197.127 28.408ZM193.475 26.252L192.758 26.9491L192.768 26.9591L193.475 26.252ZM193.343 17.54L192.547 16.934L193.343 17.54ZM197.523 14.592L197.159 13.6605L197.154 13.6625L197.523 14.592ZM209.579 14.02L209.38 14.9999L209.389 15.0019L209.399 15.0036L209.579 14.02ZM214.067 15.472L214.99 15.8562L215.342 15.011L214.531 14.5862L214.067 15.472ZM211.339 22.028L210.853 22.9022L211.832 23.4459L212.262 22.4122L211.339 22.028ZM202.011 22.248L201.724 23.2058L201.746 23.2125L201.768 23.2181L202.011 22.248ZM204.783 22.688L204.901 21.695L204.898 21.6947L204.783 22.688ZM209.755 23.612L209.483 24.5743L209.488 24.5758L209.755 23.612ZM213.363 25.768L212.646 26.4651L212.656 26.4751L213.363 25.768ZM213.539 34.392L214.334 34.998L213.539 34.392ZM209.315 37.34L209.679 38.2715L209.315 37.34ZM202.495 37.44C200.514 37.44 198.562 37.2278 196.638 36.8035L196.208 38.7565C198.273 39.2122 200.37 39.44 202.495 39.44V37.44ZM196.638 36.8035C194.703 36.3765 193.194 35.833 192.079 35.1958L191.087 36.9322C192.436 37.703 194.154 38.3035 196.208 38.7565L196.638 36.8035ZM192.506 36.4482L195.234 29.8922L193.388 29.1238L190.66 35.6798L192.506 36.4482ZM193.793 30.3635C195.009 31.0993 196.425 31.6614 198.028 32.0621L198.513 30.1219C197.066 29.7599 195.842 29.266 194.829 28.6525L193.793 30.3635ZM198.028 32.0621C199.626 32.4615 201.189 32.664 202.715 32.664V30.664C201.367 30.664 199.967 30.4852 198.513 30.1219L198.028 32.0621ZM202.715 32.664C203.856 32.664 204.825 32.5835 205.462 32.3285L204.72 30.4715C204.477 30.5685 203.862 30.664 202.715 30.664V32.664ZM205.492 32.3162C206.176 32.017 206.795 31.4395 206.795 30.52H204.795C204.795 30.5111 204.797 30.4892 204.806 30.461C204.816 30.4325 204.829 30.4121 204.838 30.4013C204.846 30.3918 204.844 30.3973 204.821 30.4135C204.798 30.43 204.756 30.4549 204.69 30.4838L205.492 32.3162ZM206.795 30.52C206.795 30.0348 206.593 29.6068 206.244 29.2927C205.928 29.0084 205.532 28.8516 205.157 28.7579L204.672 30.6981C204.771 30.7229 204.837 30.7475 204.877 30.7662C204.917 30.7849 204.921 30.7926 204.906 30.7793C204.889 30.7637 204.856 30.7279 204.83 30.6698C204.803 30.6109 204.795 30.5564 204.795 30.52H206.795ZM205.169 28.7609C204.537 28.5944 203.55 28.4415 202.256 28.2944L202.03 30.2816C203.317 30.4278 204.179 30.5683 204.66 30.6951L205.169 28.7609ZM202.261 28.2951C200.324 28.0637 198.698 27.777 197.374 27.4391L196.88 29.3769C198.313 29.743 200.031 30.0429 202.024 30.2809L202.261 28.2951ZM197.393 27.4442C196.189 27.111 195.121 26.4843 194.182 25.5449L192.768 26.9591C193.94 28.1317 195.308 28.9423 196.86 29.3718L197.393 27.4442ZM194.192 25.5549C193.401 24.7412 192.935 23.5145 192.935 21.72H190.935C190.935 23.8561 191.496 25.6508 192.758 26.9491L194.192 25.5549ZM192.935 21.72C192.935 20.3834 193.333 19.2032 194.138 18.146L192.547 16.934C191.476 18.3408 190.935 19.9473 190.935 21.72H192.935ZM194.138 18.146C194.94 17.0942 196.166 16.2065 197.892 15.5215L197.154 13.6625C195.184 14.4442 193.623 15.5218 192.547 16.934L194.138 18.146ZM197.887 15.5235C199.619 14.8466 201.734 14.492 204.255 14.492V12.492C201.555 12.492 199.181 12.8707 197.159 13.6605L197.887 15.5235ZM204.255 14.492C206.009 14.492 207.716 14.6617 209.38 14.9999L209.778 13.0401C207.98 12.6743 206.139 12.492 204.255 12.492V14.492ZM209.399 15.0036C211.086 15.313 212.481 15.7703 213.603 16.3578L214.531 14.5862C213.189 13.883 211.591 13.3723 209.759 13.0364L209.399 15.0036ZM213.144 15.0878L210.416 21.6438L212.262 22.4122L214.99 15.8562L213.144 15.0878ZM211.825 21.1538C209.557 19.8943 207.072 19.268 204.387 19.268V21.268C206.747 21.268 208.896 21.8151 210.853 22.9022L211.825 21.1538ZM204.387 19.268C203.27 19.268 202.319 19.3626 201.613 19.6105C201.256 19.7361 200.892 19.9245 200.609 20.2232C200.304 20.5451 200.131 20.9558 200.131 21.412H202.131C202.131 21.4869 202.094 21.5639 202.06 21.5998C202.048 21.6125 202.091 21.5626 202.276 21.4975C202.656 21.3641 203.333 21.268 204.387 21.268V19.268ZM200.131 21.412C200.131 21.8949 200.33 22.3168 200.662 22.632C200.966 22.9206 201.35 23.0939 201.724 23.2058L202.298 21.2902C202.198 21.26 202.129 21.231 202.085 21.2083C202.041 21.1855 202.031 21.174 202.04 21.182C202.05 21.1919 202.077 21.2214 202.1 21.2726C202.123 21.3251 202.131 21.3754 202.131 21.412H200.131ZM201.768 23.2181C202.421 23.3814 203.399 23.5338 204.667 23.6813L204.898 21.6947C203.644 21.5488 202.774 21.408 202.253 21.2779L201.768 23.2181ZM204.664 23.6809C206.597 23.9117 208.2 24.2116 209.483 24.5743L210.027 22.6497C208.612 22.2497 206.899 21.9336 204.901 21.6951L204.664 23.6809ZM209.488 24.5758C210.691 24.9084 211.739 25.5325 212.646 26.4651L214.08 25.0709C212.933 23.8915 211.577 23.0783 210.021 22.6482L209.488 24.5758ZM212.656 26.4751C213.471 27.2899 213.947 28.5129 213.947 30.3H215.947C215.947 28.1564 215.367 26.3581 214.07 25.0609L212.656 26.4751ZM213.947 30.3C213.947 31.5689 213.554 32.7215 212.743 33.786L214.334 34.998C215.401 33.5985 215.947 32.0231 215.947 30.3H213.947ZM212.743 33.786C211.945 34.8341 210.708 35.7223 208.951 36.4085L209.679 38.2715C211.677 37.491 213.256 36.4139 214.334 34.998L212.743 33.786ZM208.951 36.4085C207.221 37.0845 205.078 37.44 202.495 37.44V39.44C205.251 39.44 207.655 39.0622 209.679 38.2715L208.951 36.4085ZM229.486 30.608L230.27 29.9873L229.544 29.0705L228.751 29.9297L229.486 30.608ZM227.902 32.324L227.167 31.6457L226.902 31.933V32.324H227.902ZM227.902 38V39H228.902V38H227.902ZM217.958 38H216.958V39H217.958V38ZM217.958 5.352V4.352H216.958V5.352H217.958ZM227.902 5.352H228.902V4.352H227.902V5.352ZM227.902 20.928H226.902V23.364L228.613 21.6306L227.902 20.928ZM234.81 13.932V12.932H234.392L234.098 13.2294L234.81 13.932ZM246.558 13.932L247.282 14.6221L248.893 12.932H246.558V13.932ZM236.614 24.36L235.89 23.6699L235.292 24.2973L235.828 24.9785L236.614 24.36ZM247.35 38V39H249.41L248.136 37.3815L247.35 38ZM235.338 38L234.554 38.6207L234.854 39H235.338V38ZM228.751 29.9297L227.167 31.6457L228.637 33.0023L230.221 31.2863L228.751 29.9297ZM226.902 32.324V38H228.902V32.324H226.902ZM227.902 37H217.958V39H227.902V37ZM218.958 38V5.352H216.958V38H218.958ZM217.958 6.352H227.902V4.352H217.958V6.352ZM226.902 5.352V20.928H228.902V5.352H226.902ZM228.613 21.6306L235.521 14.6346L234.098 13.2294L227.19 20.2254L228.613 21.6306ZM234.81 14.932H246.558V12.932H234.81V14.932ZM245.834 13.2419L235.89 23.6699L237.338 25.0501L247.282 14.6221L245.834 13.2419ZM235.828 24.9785L246.564 38.6185L248.136 37.3815L237.4 23.7415L235.828 24.9785ZM247.35 37H235.338V39H247.35V37ZM236.122 37.3793L230.27 29.9873L228.702 31.2287L234.554 38.6207L236.122 37.3793ZM249.325 13.932V12.932H248.325V13.932H249.325ZM259.269 13.932H260.269V12.932H259.269V13.932ZM259.269 38V39H260.269V38H259.269ZM249.325 38H248.325V39H249.325V38ZM249.941 10.588L249.275 11.3343L249.286 11.3438L249.297 11.3529L249.941 10.588ZM249.941 3.328L250.595 4.08436L250.597 4.08303L249.941 3.328ZM258.653 3.24L258.011 4.00652V4.00652L258.653 3.24ZM258.653 10.544L259.319 11.2903L259.324 11.2854L259.33 11.2803L258.653 10.544ZM249.325 14.932H259.269V12.932H249.325V14.932ZM258.269 13.932V38H260.269V13.932H258.269ZM259.269 37H249.325V39H259.269V37ZM250.325 38V13.932H248.325V38H250.325ZM254.297 10.996C252.688 10.996 251.481 10.5776 250.585 9.82309L249.297 11.3529C250.63 12.4758 252.328 12.996 254.297 12.996V10.996ZM250.607 9.8417C249.736 9.06528 249.313 8.12039 249.313 6.936H247.313C247.313 8.68494 247.975 10.1747 249.275 11.3343L250.607 9.8417ZM249.313 6.936C249.313 5.75234 249.735 4.82831 250.595 4.08436L249.287 2.57163C247.976 3.70502 247.313 5.18633 247.313 6.936H249.313ZM250.597 4.08303C251.493 3.30481 252.695 2.876 254.297 2.876V0.875998C252.32 0.875998 250.619 1.41519 249.285 2.57296L250.597 4.08303ZM254.297 2.876C255.949 2.876 257.152 3.28665 258.011 4.00652L259.295 2.47348C257.984 1.37468 256.282 0.875998 254.297 0.875998V2.876ZM258.011 4.00652C258.865 4.72255 259.281 5.61334 259.281 6.76H261.281C261.281 5.03199 260.611 3.57611 259.295 2.47348L258.011 4.00652ZM259.281 6.76C259.281 8.01649 258.848 9.00706 257.976 9.80767L259.33 11.2803C260.629 10.0863 261.281 8.55417 261.281 6.76H259.281ZM257.987 9.7977C257.128 10.5643 255.934 10.996 254.297 10.996V12.996C256.297 12.996 258.007 12.4597 259.319 11.2903L257.987 9.7977ZM290.473 13.932L291.4 14.306L291.954 12.932H290.473V13.932ZM280.573 38.484L279.645 38.11L279.645 38.1111L280.573 38.484ZM275.865 45.084L276.422 45.9141L275.865 45.084ZM264.865 46.36L265.15 45.4015L265.137 45.3977L264.865 46.36ZM261.653 44.82L260.752 44.3844L260.408 45.0959L261.021 45.5952L261.653 44.82ZM264.953 38L265.56 37.2056L264.586 36.461L264.052 37.5644L264.953 38ZM266.625 38.924L266.269 39.8585L266.276 39.8612L266.283 39.8638L266.625 38.924ZM270.937 38.308L271.693 38.9616L272.097 38.4945L271.86 37.9246L270.937 38.308ZM260.817 13.932V12.932H259.319L259.893 14.3154L260.817 13.932ZM271.025 13.932L271.958 13.5722L271.711 12.932H271.025V13.932ZM275.997 26.824L275.064 27.1838L275.988 29.5819L276.927 27.1894L275.997 26.824ZM281.057 13.932V12.932H280.375L280.126 13.5666L281.057 13.932ZM289.545 13.558L279.645 38.11L281.5 38.858L291.4 14.306L289.545 13.558ZM279.645 38.1111C278.423 41.1505 276.954 43.1472 275.307 44.254L276.422 45.9141C278.53 44.4981 280.199 42.0948 281.5 38.8569L279.645 38.1111ZM275.307 44.254C273.626 45.3834 271.527 45.976 268.957 45.976V47.976C271.842 47.976 274.349 47.3073 276.422 45.9141L275.307 44.254ZM268.957 45.976C267.71 45.976 266.442 45.7865 265.15 45.4016L264.579 47.3184C266.044 47.7548 267.504 47.976 268.957 47.976V45.976ZM265.137 45.3977C263.873 45.0405 262.939 44.5781 262.284 44.0448L261.021 45.5952C261.95 46.3526 263.158 46.9168 264.593 47.3223L265.137 45.3977ZM262.553 45.2556L265.853 38.4356L264.052 37.5644L260.752 44.3844L262.553 45.2556ZM264.345 38.7944C264.924 39.2372 265.567 39.5912 266.269 39.8585L266.981 37.9895C266.45 37.7875 265.978 37.5255 265.56 37.2056L264.345 38.7944ZM266.283 39.8638C267.019 40.1316 267.751 40.276 268.473 40.276V38.276C268.02 38.276 267.52 38.1857 266.966 37.9842L266.283 39.8638ZM268.473 40.276C269.763 40.276 270.897 39.8841 271.693 38.9616L270.18 37.6544C269.862 38.0225 269.353 38.276 268.473 38.276V40.276ZM271.86 37.9246L261.74 13.5486L259.893 14.3154L270.013 38.6914L271.86 37.9246ZM260.817 14.932H271.025V12.932H260.817V14.932ZM270.092 14.2918L275.064 27.1838L276.93 26.4642L271.958 13.5722L270.092 14.2918ZM276.927 27.1894L281.987 14.2974L280.126 13.5666L275.066 26.4586L276.927 27.1894ZM281.057 14.932H290.473V12.932H281.057V14.932Z" fill="#29B6F6"/>
</svg>
