<svg width="281" height="45" viewBox="0 0 281 45" fill="none" xmlns="http://www.w3.org/2000/svg">
<path d="M13.872 36.396C11.232 36.396 8.87067 35.868 6.788 34.812C4.70533 33.756 3.07733 32.2893 1.904 30.412C0.76 28.5347 0.188 26.408 0.188 24.032C0.188 21.656 0.76 19.544 1.904 17.696C3.07733 15.8187 4.70533 14.3667 6.788 13.34C8.87067 12.284 11.232 11.756 13.872 11.756C16.5707 11.756 18.9027 12.3427 20.868 13.516C22.8333 14.66 24.2267 16.2587 25.048 18.312L18.58 21.612C17.4947 19.4707 15.9107 18.4 13.828 18.4C12.332 18.4 11.0853 18.8987 10.088 19.896C9.12 20.8933 8.636 22.272 8.636 24.032C8.636 25.8213 9.12 27.2293 10.088 28.256C11.0853 29.2533 12.332 29.752 13.828 29.752C15.9107 29.752 17.4947 28.6813 18.58 26.54L25.048 29.84C24.2267 31.8933 22.8333 33.5067 20.868 34.68C18.9027 35.824 16.5707 36.396 13.872 36.396ZM43.6418 11.756C46.6044 11.756 48.9804 12.636 50.7698 14.396C52.5884 16.156 53.4978 18.8107 53.4978 22.36V36H45.1378V23.724C45.1378 20.468 43.8324 18.84 41.2218 18.84C39.7844 18.84 38.6258 19.3093 37.7458 20.248C36.8951 21.1867 36.4698 22.5947 36.4698 24.472V36H28.1098V3.352H36.4698V14.352C37.3791 13.5013 38.4498 12.856 39.6818 12.416C40.9138 11.976 42.2338 11.756 43.6418 11.756ZM83.4663 24.12C83.4663 24.1787 83.4223 24.868 83.3343 26.188H65.9983C66.3503 27.42 67.0249 28.3733 68.0222 29.048C69.0489 29.6933 70.3249 30.016 71.8503 30.016C72.9943 30.016 73.9769 29.8547 74.7983 29.532C75.6489 29.2093 76.4996 28.6813 77.3503 27.948L81.7503 32.524C79.4329 35.1053 76.0449 36.396 71.5863 36.396C68.7996 36.396 66.3503 35.868 64.2383 34.812C62.1263 33.756 60.4836 32.2893 59.3102 30.412C58.1663 28.5347 57.5943 26.408 57.5943 24.032C57.5943 21.6853 58.1516 19.588 59.2663 17.74C60.4103 15.8627 61.9796 14.396 63.9743 13.34C65.9689 12.284 68.2129 11.756 70.7063 11.756C73.0823 11.756 75.2383 12.2547 77.1743 13.252C79.1103 14.22 80.6356 15.6427 81.7503 17.52C82.8943 19.368 83.4663 21.568 83.4663 24.12ZM70.7503 17.696C69.4596 17.696 68.3743 18.0627 67.4943 18.796C66.6436 19.5293 66.1009 20.5267 65.8663 21.788H75.6343C75.3996 20.5267 74.8423 19.5293 73.9623 18.796C73.1116 18.0627 72.0409 17.696 70.7503 17.696ZM102.853 11.756C105.815 11.756 108.191 12.636 109.981 14.396C111.799 16.156 112.709 18.8107 112.709 22.36V36H104.349V23.724C104.349 20.468 103.043 18.84 100.433 18.84C98.9954 18.84 97.8367 19.3093 96.9567 20.248C96.1061 21.1867 95.6807 22.5947 95.6807 24.472V36H87.3207V3.352H95.6807V14.352C96.5901 13.5013 97.6607 12.856 98.8927 12.416C100.125 11.976 101.445 11.756 102.853 11.756ZM117.957 3.352H126.317V36H117.957V3.352ZM143.718 36.396C141.166 36.396 138.864 35.868 136.81 34.812C134.757 33.756 133.144 32.2893 131.97 30.412C130.826 28.5347 130.254 26.408 130.254 24.032C130.254 21.6853 130.826 19.5733 131.97 17.696C133.144 15.8187 134.742 14.3667 136.766 13.34C138.82 12.284 141.137 11.756 143.718 11.756C146.3 11.756 148.617 12.284 150.67 13.34C152.724 14.3667 154.322 15.8187 155.466 17.696C156.61 19.544 157.182 21.656 157.182 24.032C157.182 26.408 156.61 28.5347 155.466 30.412C154.322 32.2893 152.724 33.756 150.67 34.812C148.617 35.868 146.3 36.396 143.718 36.396ZM143.718 29.752C145.185 29.752 146.388 29.2533 147.326 28.256C148.265 27.2293 148.734 25.8213 148.734 24.032C148.734 22.272 148.265 20.8933 147.326 19.896C146.388 18.8987 145.185 18.4 143.718 18.4C142.252 18.4 141.049 18.8987 140.11 19.896C139.172 20.8933 138.702 22.272 138.702 24.032C138.702 25.8213 139.172 27.2293 140.11 28.256C141.049 29.2533 142.252 29.752 143.718 29.752ZM185.535 12.152L175.679 36H167.055L157.243 12.152H165.823L171.543 26.716L177.571 12.152H185.535ZM195.977 36.396C193.982 36.396 192.017 36.176 190.081 35.736C188.145 35.2667 186.59 34.6653 185.417 33.932L187.925 28.212C189.01 28.8867 190.301 29.4293 191.797 29.84C193.293 30.2213 194.774 30.412 196.241 30.412C197.59 30.412 198.544 30.28 199.101 30.016C199.688 29.7227 199.981 29.312 199.981 28.784C199.981 28.256 199.629 27.8893 198.925 27.684C198.25 27.4493 197.165 27.2293 195.669 27.024C193.762 26.7893 192.134 26.4813 190.785 26.1C189.465 25.7187 188.321 25.0147 187.353 23.988C186.385 22.9613 185.901 21.524 185.901 19.676C185.901 18.1507 186.356 16.8013 187.265 15.628C188.174 14.4253 189.494 13.4867 191.225 12.812C192.985 12.108 195.082 11.756 197.517 11.756C199.248 11.756 200.964 11.932 202.665 12.284C204.366 12.636 205.789 13.1347 206.933 13.78L204.425 19.456C202.313 18.2827 200.025 17.696 197.561 17.696C196.241 17.696 195.273 17.8573 194.657 18.18C194.041 18.4733 193.733 18.8693 193.733 19.368C193.733 19.9253 194.07 20.3213 194.745 20.556C195.42 20.7613 196.534 20.9813 198.089 21.216C200.054 21.5093 201.682 21.8467 202.973 22.228C204.264 22.6093 205.378 23.3133 206.317 24.34C207.285 25.3373 207.769 26.7453 207.769 28.564C207.769 30.06 207.314 31.4093 206.405 32.612C205.496 33.7853 204.146 34.7093 202.357 35.384C200.597 36.0587 198.47 36.396 195.977 36.396ZM222.196 27.64L219.732 30.148V36H211.372V3.352H219.732V20.468L228.268 12.152H238.168L228.268 22.36L239.004 36H228.884L222.196 27.64ZM241.45 12.152H249.81V36H241.45V12.152ZM245.63 9.512C244.104 9.512 242.872 9.08666 241.934 8.236C240.995 7.38533 240.526 6.32933 240.526 5.068C240.526 3.80667 240.995 2.75066 241.934 1.9C242.872 1.04933 244.104 0.623999 245.63 0.623999C247.155 0.623999 248.387 1.03467 249.326 1.856C250.264 2.648 250.734 3.67467 250.734 4.936C250.734 6.256 250.264 7.356 249.326 8.236C248.387 9.08666 247.155 9.512 245.63 9.512ZM280.367 12.152L270.071 36.968C268.868 39.9013 267.401 41.9547 265.671 43.128C263.94 44.3307 261.828 44.932 259.335 44.932C258.073 44.932 256.797 44.7267 255.507 44.316C254.245 43.9347 253.219 43.4213 252.427 42.776L255.331 36.924C255.8 37.364 256.357 37.7013 257.003 37.936C257.677 38.2 258.352 38.332 259.027 38.332C259.819 38.332 260.464 38.1707 260.963 37.848C261.491 37.5253 261.931 37.012 262.283 36.308L252.075 12.152H260.655L266.507 26.716L272.403 12.152H280.367Z" fill="#29B6F6"/>
</svg>
