<svg width="512" height="512" viewBox="0 0 512 512" fill="none" xmlns="http://www.w3.org/2000/svg">
<path d="M256 325.8H9.7C14.3 342 20.4 357.6 28 372.3H256H484C491.6 357.5 497.7 342 502.3 325.8H256Z" fill="white"/>
<path d="M256 372.4H28C36.5 389.1 46.8 404.6 58.6 418.9H256H453.3C465.1 404.6 475.4 389 484 372.4H256Z" fill="#BF0A30"/>
<path d="M256 465.5H109C150.7 494.8 201.4 512 256 512C310.7 512 361.4 494.8 403 465.5H256Z" fill="#BF0A30"/>
<path d="M256 418.9H58.7C73.3 436.5 90.2 452.2 109 465.4H256H403C421.8 452.2 438.7 436.5 453.3 418.9H256Z" fill="white"/>
<path d="M256 279.3H1.10001C2.50001 295.3 5.50001 310.8 9.70001 325.8H256H502.3C506.6 310.8 509.5 295.2 510.9 279.3H256Z" fill="#BF0A30"/>
<path d="M403 46.5C361.4 17.2 310.7 0 256 0V46.5H403Z" fill="#BF0A30"/>
<path d="M256 186.2H502.3C497.7 170 491.6 154.4 484 139.7H256V186.2Z" fill="white"/>
<path d="M256 139.6H484C475.4 122.9 465.2 107.4 453.4 93.1H256V139.6Z" fill="#BF0A30"/>
<path d="M256 93.1H453.4C438.8 75.5 421.9 59.8 403.1 46.6H256V93.1Z" fill="white"/>
<path d="M256 232.7H511C509.6 216.7 506.6 201.2 502.4 186.2H256V232.7Z" fill="#BF0A30"/>
<path d="M109 46.5C90.2 59.8 73.3 75.4 58.7 93.1C46.8 107.4 36.5 123 28 139.6C20.4 154.4 14.3 169.9 9.70001 186.1C5.40001 201.1 2.50001 216.7 1.10001 232.6H256V186.1V139.6V93.1V46.5V0C201.4 0 150.6 17.2 109 46.5Z" fill="#002868"/>
<path d="M511 232.7H256H1.1C0.4 240.4 0 248.1 0 256C0 263.9 0.4 271.6 1.1 279.3H256H511C511.7 271.7 512 263.9 512 256C512 248.1 511.7 240.4 511 232.7Z" fill="white"/>
<path d="M146 65.3L161.5 112.9H211.6L171.1 142.4L186.5 190L146 160.6L105.4 190L121 142.4L80.4 112.9H130.5L146 65.3Z" fill="white"/>
<rect x="102" y="60" width="133" height="136" fill="#002868"/>
<rect x="78" y="98" width="90" height="92" fill="#002868"/>
<path d="M219 59L229 89L203 70H235L209 89" fill="white"/>
<path d="M177 36L187 66L161 47H193L167 66" fill="white"/>
<path d="M135 59L145 89L119 70H151L125 89" fill="white"/>
<path d="M219 17L229 47L203 28H235L209 47" fill="white"/>
<path d="M219 101L229 131L203 112H235L209 131" fill="white"/>
<path d="M177 78L187 108L161 89H193L167 108" fill="white"/>
<path d="M135 101L145 131L119 112H151L125 131" fill="white"/>
<path d="M93 78L103 108L77 89H109L83 108" fill="white"/>
<path d="M219 143L229 173L203 154H235L209 173" fill="white"/>
<path d="M177 120L187 150L161 131H193L167 150" fill="white"/>
<path d="M135 143L145 173L119 154H151L125 173" fill="white"/>
<path d="M93 120L103 150L77 131H109L83 150" fill="white"/>
<path d="M51 143L61 173L35 154H67L41 173" fill="white"/>
<path d="M219 185L229 215L203 196H235L209 215" fill="white"/>
<path d="M177 162L187 192L161 173H193L167 192" fill="white"/>
<path d="M135 185L145 215L119 196H151L125 215" fill="white"/>
<path d="M93 162L103 192L77 173H109L83 192" fill="white"/>
<path d="M51 185L61 215L35 196H67L41 215" fill="white"/>
</svg>
