<svg width="41" height="41" viewBox="0 0 41 41" fill="none" xmlns="http://www.w3.org/2000/svg">
<path d="M23.0102 41C18.6273 41 14.6827 40.1364 11.1764 38.4093C7.70991 36.6447 4.98056 34.2042 2.98834 31.0879C0.996113 27.9716 0 24.4423 0 20.5C0 16.5577 0.996113 13.0284 2.98834 9.91209C4.98056 6.79579 7.70991 4.37408 11.1764 2.64698C14.6827 0.882326 18.6273 0 23.0102 0C26.8353 0 30.2818 0.638279 33.3499 1.91484C36.4179 3.19139 38.9679 5.03114 41 7.43407L33.4694 13.8544C30.76 10.7756 27.4728 9.23627 23.6079 9.23627C21.3367 9.23627 19.3047 9.70559 17.5117 10.6442C15.7585 11.5829 14.3839 12.9158 13.3878 14.6429C12.4315 16.3324 11.9534 18.2848 11.9534 20.5C11.9534 22.7152 12.4315 24.6864 13.3878 26.4135C14.3839 28.103 15.7585 29.4171 17.5117 30.3558C19.3047 31.2944 21.3367 31.7637 23.6079 31.7637C27.4728 31.7637 30.76 30.2244 33.4694 27.1456L41 33.5659C38.9679 35.9689 36.4179 37.8086 33.3499 39.0852C30.2818 40.3617 26.8353 41 23.0102 41Z" fill="#29B6F6"/>
</svg>
